<svg width="50" height="50" viewBox="0 0 50 50" fill="none" xmlns="http://www.w3.org/2000/svg">
<path d="M34.8958 8.33331C36.0836 8.33317 37.2271 8.78393 38.0953 9.5945C38.9635 10.4051 39.4916 11.515 39.5729 12.7L39.5833 13.0208V36.4583C39.5828 36.7186 39.6798 36.9697 39.8552 37.162C40.0306 37.3544 40.2716 37.4741 40.5309 37.4976C40.7901 37.5211 41.0487 37.4467 41.2559 37.2891C41.463 37.1314 41.6036 36.9019 41.65 36.6458L41.6666 36.4583V14.6125C42.754 14.7341 43.7646 15.2322 44.5233 16.0206C45.282 16.8089 45.741 17.8379 45.8208 18.9291L45.8333 19.2708V34.8958C45.8334 36.6253 45.1717 38.2892 43.984 39.5463C42.7962 40.8034 41.1725 41.5583 39.4458 41.6562L39.0625 41.6666H10.9375C9.20801 41.6667 7.54407 41.0051 6.28698 39.8173C5.02989 38.6296 4.27496 37.0058 4.17704 35.2791L4.16663 34.8958V13.0208C4.16648 11.833 4.61724 10.6895 5.42781 9.82133C6.23838 8.95313 7.34832 8.42503 8.53329 8.34373L8.85413 8.33331H34.8958ZM19.2666 22.9166H11.975C11.5606 22.9166 11.1631 23.0813 10.8701 23.3743C10.5771 23.6673 10.4125 24.0647 10.4125 24.4791V31.7708C10.4125 32.6333 11.1125 33.3333 11.975 33.3333H19.2666C19.681 33.3333 20.0785 33.1687 20.3715 32.8757C20.6645 32.5826 20.8291 32.1852 20.8291 31.7708V24.4791C20.8291 24.0647 20.6645 23.6673 20.3715 23.3743C20.0785 23.0813 19.681 22.9166 19.2666 22.9166ZM31.775 30.2083H26.5708L26.3583 30.2229C25.9661 30.2768 25.609 30.4777 25.3592 30.7848C25.1094 31.0919 24.9854 31.4823 25.0124 31.8773C25.0394 32.2723 25.2153 32.6423 25.5046 32.9125C25.7938 33.1828 26.1749 33.3332 26.5708 33.3333H31.775L31.9875 33.3187C32.3797 33.2648 32.7367 33.0639 32.9866 32.7568C33.2364 32.4497 33.3603 32.0593 33.3334 31.6643C33.3064 31.2693 33.1305 30.8993 32.8412 30.6291C32.5519 30.3588 32.1709 30.2084 31.775 30.2083ZM17.7041 26.0416V30.2083H13.5375V26.0416H17.7041ZM31.7708 22.9166L26.5666 22.9271L26.3541 22.9396C25.9581 22.9897 25.5963 23.1894 25.343 23.4979C25.0896 23.8063 24.9639 24.2 24.9916 24.5982C25.0193 24.9964 25.1984 25.3689 25.492 25.6392C25.7857 25.9096 26.1717 26.0573 26.5708 26.0521L31.7771 26.0416L31.9875 26.0271C32.3798 25.9731 32.7371 25.7721 32.9869 25.4648C33.2367 25.1575 33.3606 24.7667 33.3333 24.3716C33.306 23.9765 33.1297 23.6064 32.8401 23.3363C32.5504 23.0662 32.169 22.9162 31.7729 22.9166M31.775 15.6333H11.975L11.7625 15.6479C11.3703 15.7019 11.0132 15.9027 10.7634 16.2098C10.5135 16.5169 10.3896 16.9073 10.4166 17.3023C10.4436 17.6973 10.6195 18.0673 10.9087 18.3375C11.198 18.6078 11.5791 18.7582 11.975 18.7583H31.775L31.9875 18.7458C32.383 18.6956 32.7444 18.4961 32.9977 18.1882C33.2509 17.8802 33.3769 17.4871 33.3497 17.0893C33.3226 16.6915 33.1444 16.3191 32.8516 16.0485C32.5588 15.7778 32.1737 15.6293 31.775 15.6333Z" fill="white"/>
</svg>
